<svg width="680" height="420" viewBox="0 0 680 420" xmlns="http://www.w3.org/2000/svg">
<circle cx="215" cy="185" r="24" fill="#97C459" opacity="0.28"/>
<circle cx="192" cy="162" r="20" fill="#97C459" opacity="0.22"/>
<circle cx="200" cy="140" r="15" fill="#97C459" opacity="0.16"/>
<circle cx="228" cy="205" r="17" fill="#97C459" opacity="0.22"/>
<circle cx="185" cy="178" r="13" fill="#97C459" opacity="0.14"/>
<circle cx="178" cy="148" r="10" fill="#97C459" opacity="0.1"/>
<path d="M195 128 Q188 110 195 92" fill="none" stroke="#97C459" stroke-width="2.2" stroke-linecap="round" opacity="0.32"/>
<path d="M212 115 Q205 97 212 80" fill="none" stroke="#97C459" stroke-width="2" stroke-linecap="round" opacity="0.26"/>
<path d="M180 142 Q172 126 178 110" fill="none" stroke="#97C459" stroke-width="1.6" stroke-linecap="round" opacity="0.2"/>
<circle cx="340" cy="168" r="92" fill="#7F77DD"/>
<circle cx="340" cy="168" r="92" fill="none" stroke="#534AB7" stroke-width="2.5"/>
<ellipse cx="340" cy="185" rx="56" ry="38" fill="#AFA9EC" opacity="0.3"/>
<path d="M252 168 Q228 138 208 155" fill="none" stroke="#534AB7" stroke-width="9" stroke-linecap="round"/>
<circle cx="205" cy="157" r="9" fill="#7F77DD"/>
<path d="M428 168 Q458 128 478 108" fill="none" stroke="#534AB7" stroke-width="9" stroke-linecap="round"/>
<path d="M478 108 L498 98 M478 108 L492 118 M478 108 L500 108" fill="none" stroke="#534AB7" stroke-width="4" stroke-linecap="round"/>
<ellipse cx="315" cy="260" rx="20" ry="10" fill="#534AB7"/>
<ellipse cx="365" cy="260" rx="20" ry="10" fill="#534AB7"/>
<rect x="280" y="128" width="55" height="40" rx="6" fill="white" stroke="#26215C" stroke-width="3"/>
<rect x="345" y="128" width="55" height="40" rx="6" fill="white" stroke="#26215C" stroke-width="3"/>
<line x1="335" y1="148" x2="345" y2="148" stroke="#26215C" stroke-width="3"/>
<line x1="280" y1="148" x2="268" y2="145" stroke="#26215C" stroke-width="2.5" stroke-linecap="round"/>
<line x1="400" y1="148" x2="412" y2="145" stroke="#26215C" stroke-width="2.5" stroke-linecap="round"/>
<circle cx="307" cy="148" r="9" fill="#26215C"/>
<circle cx="310" cy="145" r="3" fill="white"/>
<circle cx="372" cy="148" r="9" fill="#26215C"/>
<circle cx="375" cy="145" r="3" fill="white"/>
<path d="M282 124 Q300 110 336 120" fill="none" stroke="#3C3489" stroke-width="4" stroke-linecap="round"/>
<path d="M344 120 Q380 110 398 124" fill="none" stroke="#3C3489" stroke-width="4" stroke-linecap="round"/>
<ellipse cx="340" cy="210" rx="38" ry="24" fill="#26215C"/>
<ellipse cx="340" cy="205" rx="34" ry="16" fill="#3C3489"/>
<path d="M310 195 Q340 185 370 195" fill="none" stroke="white" stroke-width="2" stroke-linecap="round" opacity="0.3"/>
<ellipse cx="340" cy="222" rx="16" ry="8" fill="#D4537E"/>
<path d="M308 192 L310 182" fill="none" stroke="white" stroke-width="1.5" stroke-linecap="round" opacity="0.5"/>
<path d="M328 188 L329 178" fill="none" stroke="white" stroke-width="1.5" stroke-linecap="round" opacity="0.5"/>
<path d="M352 188 L351 178" fill="none" stroke="white" stroke-width="1.5" stroke-linecap="round" opacity="0.5"/>
<path d="M372 192 L370 182" fill="none" stroke="white" stroke-width="1.5" stroke-linecap="round" opacity="0.5"/>
<circle cx="282" cy="185" r="13" fill="#F5C4B3" opacity="0.5"/>
<circle cx="398" cy="185" r="13" fill="#F5C4B3" opacity="0.5"/>
<path d="M365 80 L370 65 M375 82 L385 68 M385 86 L398 74" fill="none" stroke="#E24B4A" stroke-width="2.5" stroke-linecap="round" opacity="0.6"/>
<path d="M305 82 L298 66 M295 86 L285 72" fill="none" stroke="#E24B4A" stroke-width="2.5" stroke-linecap="round" opacity="0.5"/>
<text x="340" y="325" text-anchor="middle" font-family="Helvetica, Arial, sans-serif" font-weight="600" font-size="44" fill="#26215C" letter-spacing="3">FARTY</text>
<text x="340" y="372" text-anchor="middle" font-family="Helvetica, Arial, sans-serif" font-weight="600" font-size="44" fill="#7F77DD" letter-spacing="3">BOBO</text>
</svg>